<svg width="41" height="21" viewBox="0 0 41 21" fill="none" xmlns="http://www.w3.org/2000/svg">
<path d="M21.0156 0.539066L21.3281 1.39844C20.5208 3.22136 19.5833 5.20052 18.5156 7.33594C17.4219 9.47136 16.263 11.6328 15.0391 13.8203C13.8151 16.0339 12.5781 18.1302 11.3281 20.1094L0.0390631 20.1094C0.950521 18 1.83594 15.7865 2.69531 13.4688C3.55469 11.151 4.375 8.8724 5.15625 6.63282C5.9375 4.41928 6.67969 2.38803 7.38281 0.539068L21.0156 0.539066ZM40.3516 0.539063L40.7422 1.39844C39.9349 3.22135 38.9974 5.20052 37.9297 7.33594C36.8359 9.47136 35.6641 11.6328 34.4141 13.8203C33.1641 16.0339 31.9141 18.1302 30.6641 20.1094L19.4141 20.1094C20.0911 18.5208 20.7682 16.8672 21.4453 15.1484C22.0964 13.4557 22.7344 11.75 23.3594 10.0313C23.9844 8.3125 24.5833 6.64584 25.1562 5.03125C25.7292 3.41667 26.263 1.91927 26.7578 0.539065L40.3516 0.539063Z" fill="#203FCD"/>
</svg>
