<svg width="41" height="21" viewBox="0 0 41 21" fill="none" xmlns="http://www.w3.org/2000/svg">
<path d="M19.9844 20.4609L19.6719 19.6016C20.4792 17.7786 21.4167 15.7995 22.4844 13.6641C23.5781 11.5286 24.737 9.36719 25.9609 7.17969C27.1849 4.96615 28.4219 2.86979 29.6719 0.890625H40.9609C40.0495 3 39.1641 5.21354 38.3047 7.53125C37.4453 9.84896 36.625 12.1276 35.8438 14.3672C35.0625 16.5807 34.3203 18.612 33.6172 20.4609H19.9844ZM0.648438 20.4609L0.257812 19.6016C1.0651 17.7786 2.0026 15.7995 3.07031 13.6641C4.16406 11.5286 5.33594 9.36719 6.58594 7.17969C7.83594 4.96615 9.08594 2.86979 10.3359 0.890625H21.5859C20.9089 2.47917 20.2318 4.13281 19.5547 5.85156C18.9036 7.54427 18.2656 9.25 17.6406 10.9688C17.0156 12.6875 16.4167 14.3542 15.8438 15.9688C15.2708 17.5833 14.737 19.0807 14.2422 20.4609H0.648438Z" fill="#203FCD"/>
</svg>
